<svg width="189" height="118" viewBox="0 0 189 118" fill="none" xmlns="http://www.w3.org/2000/svg">
<path d="M13.6818 47.3867L0.136364 0.841263H12.5682L19.5909 31.3413H19.9773L28 0.841263H38.1364L46.1591 31.4094H46.5455L53.5909 0.841263H66L52.4773 47.3867H41.6364L33.25 19.1594H32.8864L24.5 47.3867H13.6818ZM70.6477 47.3867V0.841263H103.102V9.97763H81.8977V19.5231H101.443V28.6822H81.8977V38.2504H103.102V47.3867H70.6477ZM110.148 47.3867V0.841263H129.557C133.042 0.841263 135.958 1.33369 138.307 2.31853C140.67 3.30338 142.443 4.68217 143.625 6.4549C144.822 8.22763 145.42 10.2807 145.42 12.614C145.42 14.3867 145.049 15.9701 144.307 17.364C143.564 18.7428 142.542 19.8867 141.239 20.7958C139.936 21.7049 138.428 22.3413 136.716 22.7049V23.1594C138.595 23.2504 140.33 23.7579 141.92 24.6822C143.527 25.6064 144.814 26.8943 145.784 28.5458C146.754 30.1822 147.239 32.1216 147.239 34.364C147.239 36.864 146.602 39.0988 145.33 41.0685C144.057 43.0231 142.216 44.5685 139.807 45.7049C137.398 46.8261 134.473 47.3867 131.034 47.3867H110.148ZM121.398 38.3185H128.352C130.792 38.3185 132.587 37.8564 133.739 36.9322C134.905 36.0079 135.489 34.7201 135.489 33.0685C135.489 31.8716 135.208 30.8413 134.648 29.9776C134.087 29.0988 133.292 28.4246 132.261 27.9549C131.231 27.4701 129.996 27.2276 128.557 27.2276H121.398V38.3185ZM121.398 19.9776H127.625C128.852 19.9776 129.943 19.7731 130.898 19.364C131.852 18.9549 132.595 18.364 133.125 17.5913C133.67 16.8185 133.943 15.8867 133.943 14.7958C133.943 13.2352 133.39 12.0079 132.284 11.114C131.178 10.2201 129.686 9.77308 127.807 9.77308H121.398V19.9776ZM170.261 48.0231C166.716 48.0231 163.572 47.417 160.83 46.2049C158.102 44.9776 155.951 43.2882 154.375 41.1367C152.799 38.9852 151.996 36.5079 151.966 33.7049H163.284C163.33 34.7201 163.655 35.6216 164.261 36.4094C164.867 37.1822 165.693 37.7882 166.739 38.2276C167.784 38.667 168.973 38.8867 170.307 38.8867C171.64 38.8867 172.814 38.6519 173.83 38.1822C174.86 37.6973 175.663 37.0382 176.239 36.2049C176.814 35.3564 177.095 34.3867 177.08 33.2958C177.095 32.2049 176.784 31.2352 176.148 30.3867C175.511 29.5382 174.61 28.8791 173.443 28.4094C172.292 27.9397 170.928 27.7049 169.352 27.7049H164.83V19.7049H169.352C170.731 19.7049 171.943 19.4776 172.989 19.0231C174.049 18.5685 174.875 17.9322 175.466 17.114C176.057 16.2807 176.345 15.3261 176.33 14.2504C176.345 13.2049 176.095 12.2882 175.58 11.5004C175.08 10.6973 174.375 10.0761 173.466 9.63672C172.572 9.19732 171.534 8.97763 170.352 8.97763C169.11 8.97763 167.981 9.19732 166.966 9.63672C165.966 10.0761 165.17 10.6973 164.58 11.5004C163.989 12.3034 163.678 13.2352 163.648 14.2958H152.898C152.928 11.5231 153.701 9.08369 155.216 6.97763C156.731 4.85641 158.792 3.19732 161.398 2.00035C164.019 0.803384 167.004 0.204899 170.352 0.204899C173.686 0.204899 176.617 0.788232 179.148 1.9549C181.678 3.12157 183.648 4.71247 185.057 6.72763C186.466 8.72763 187.17 10.9928 187.17 13.5231C187.186 16.1443 186.33 18.3034 184.602 20.0004C182.89 21.6973 180.686 22.7428 177.989 23.1367V23.5004C181.595 23.9246 184.314 25.0913 186.148 27.0004C187.996 28.9094 188.913 31.2958 188.898 34.1594C188.898 36.8564 188.102 39.2504 186.511 41.3413C184.936 43.417 182.739 45.0534 179.92 46.2504C177.117 47.4322 173.898 48.0231 170.261 48.0231Z" fill="#CCCCCC"/>
<path d="M2.52273 117.387V70.8413H13.7727V89.5231H32.1136V70.8413H43.3409V117.387H32.1136V98.6822H13.7727V117.387H2.52273ZM78.5568 70.8413H89.7841V100.864C89.7841 104.334 88.9583 107.356 87.3068 109.932C85.6553 112.493 83.3523 114.478 80.3977 115.887C77.4432 117.281 74.0114 117.978 70.1023 117.978C66.1477 117.978 62.6932 117.281 59.7386 115.887C56.7841 114.478 54.4886 112.493 52.8523 109.932C51.2159 107.356 50.3977 104.334 50.3977 100.864V70.8413H61.6477V99.8867C61.6477 101.493 61.9962 102.925 62.6932 104.182C63.4053 105.44 64.3977 106.425 65.6705 107.137C66.9432 107.849 68.4205 108.205 70.1023 108.205C71.7841 108.205 73.2538 107.849 74.5114 107.137C75.7841 106.425 76.7765 105.44 77.4886 104.182C78.2008 102.925 78.5568 101.493 78.5568 99.8867V70.8413ZM96.8352 117.387V70.8413H116.244C119.729 70.8413 122.646 71.3337 124.994 72.3185C127.358 73.3034 129.131 74.6822 130.312 76.4549C131.509 78.2276 132.108 80.2807 132.108 82.614C132.108 84.3867 131.737 85.9701 130.994 87.364C130.252 88.7428 129.229 89.8867 127.926 90.7958C126.623 91.7049 125.116 92.3413 123.403 92.7049V93.1594C125.282 93.2504 127.017 93.7579 128.608 94.6822C130.214 95.6064 131.502 96.8943 132.472 98.5458C133.441 100.182 133.926 102.122 133.926 104.364C133.926 106.864 133.29 109.099 132.017 111.069C130.744 113.023 128.903 114.569 126.494 115.705C124.085 116.826 121.161 117.387 117.722 117.387H96.8352ZM108.085 108.319H115.04C117.479 108.319 119.275 107.856 120.426 106.932C121.593 106.008 122.176 104.72 122.176 103.069C122.176 101.872 121.896 100.841 121.335 99.9776C120.775 99.0988 119.979 98.4246 118.949 97.9549C117.919 97.4701 116.684 97.2276 115.244 97.2276H108.085V108.319ZM108.085 89.9776H114.312C115.54 89.9776 116.631 89.7731 117.585 89.364C118.54 88.9549 119.282 88.364 119.812 87.5913C120.358 86.8185 120.631 85.8867 120.631 84.7958C120.631 83.2352 120.078 82.0079 118.972 81.114C117.866 80.2201 116.373 79.7731 114.494 79.7731H108.085V89.9776Z" fill="#FEC203"/>
</svg>
