<svg width="271" height="271" viewBox="0 0 271 271" fill="none" xmlns="http://www.w3.org/2000/svg">
<g filter="url(#filter0_d_297_177)">
<rect x="100" y="100" width="71" height="71" rx="35.5" fill="#50AF95" shape-rendering="crispEdges"/>
<rect x="100" y="100" width="71" height="71" rx="35.5" fill="#50AF95"/>
<rect x="100" y="100" width="71" height="71" rx="35.5" fill="black" fill-opacity="0.1"/>
<g filter="url(#filter1_i_297_177)">
<rect x="108" y="108" width="55" height="55" rx="27.5" fill="#50AF95"/>
<path fill-rule="evenodd" clip-rule="evenodd" d="M138.756 136.552C138.574 136.564 137.634 136.618 135.539 136.618C133.872 136.618 132.689 136.57 132.273 136.552C125.832 136.282 121.024 135.217 121.024 133.942C121.024 132.667 125.832 131.603 132.273 131.329V135.491C132.695 135.519 133.901 135.587 135.567 135.587C137.567 135.587 138.569 135.508 138.749 135.492V131.332C145.177 131.604 149.974 132.67 149.974 133.942C149.974 135.214 145.178 136.279 138.749 136.55L138.756 136.552ZM138.756 130.902V127.178H147.726V121.5H123.303V127.178H132.272V130.901C124.982 131.219 119.5 132.59 119.5 134.234C119.5 135.878 124.982 137.248 132.272 137.568V149.5H138.754V137.563C146.027 137.245 151.5 135.875 151.5 134.233C151.5 132.59 146.032 131.22 138.754 130.901L138.756 130.902Z" fill="white"/>
</g>
</g>
<defs>
<filter id="filter0_d_297_177" x="0" y="0" width="271" height="271" filterUnits="userSpaceOnUse" color-interpolation-filters="sRGB">
<feFlood flood-opacity="0" result="BackgroundImageFix"/>
<feColorMatrix in="SourceAlpha" type="matrix" values="0 0 0 0 0 0 0 0 0 0 0 0 0 0 0 0 0 0 127 0" result="hardAlpha"/>
<feOffset/>
<feGaussianBlur stdDeviation="50"/>
<feComposite in2="hardAlpha" operator="out"/>
<feColorMatrix type="matrix" values="0 0 0 0 0.313726 0 0 0 0 0.686275 0 0 0 0 0.584314 0 0 0 0.75 0"/>
<feBlend mode="normal" in2="BackgroundImageFix" result="effect1_dropShadow_297_177"/>
<feBlend mode="normal" in="SourceGraphic" in2="effect1_dropShadow_297_177" result="shape"/>
</filter>
<filter id="filter1_i_297_177" x="108" y="108" width="55" height="55" filterUnits="userSpaceOnUse" color-interpolation-filters="sRGB">
<feFlood flood-opacity="0" result="BackgroundImageFix"/>
<feBlend mode="normal" in="SourceGraphic" in2="BackgroundImageFix" result="shape"/>
<feColorMatrix in="SourceAlpha" type="matrix" values="0 0 0 0 0 0 0 0 0 0 0 0 0 0 0 0 0 0 127 0" result="hardAlpha"/>
<feOffset/>
<feGaussianBlur stdDeviation="3"/>
<feComposite in2="hardAlpha" operator="arithmetic" k2="-1" k3="1"/>
<feColorMatrix type="matrix" values="0 0 0 0 1 0 0 0 0 1 0 0 0 0 1 0 0 0 0.3 0"/>
<feBlend mode="normal" in2="shape" result="effect1_innerShadow_297_177"/>
</filter>
</defs>
</svg>
