<svg width="271" height="271" viewBox="0 0 271 271" fill="none" xmlns="http://www.w3.org/2000/svg">
<g filter="url(#filter0_d_297_165)">
<rect x="100" y="100" width="71" height="68.4254" rx="34.2127" fill="#2775CA" shape-rendering="crispEdges"/>
<rect x="100" y="100" width="71" height="71" rx="35.5" fill="#2775CA"/>
<rect x="100" y="100" width="71" height="71" rx="35.5" fill="black" fill-opacity="0.1"/>
<g filter="url(#filter1_i_297_165)">
<rect x="108" y="108" width="55" height="55" rx="27.5" fill="#2775CA"/>
<path fill-rule="evenodd" clip-rule="evenodd" d="M122.862 130.54C120.096 137.884 123.911 146.182 131.35 148.853C131.636 149.043 131.922 149.425 131.922 149.711V151.046C131.922 151.237 131.922 151.332 131.827 151.428C131.732 151.809 131.35 152 130.969 151.809C125.628 150.092 121.526 145.991 119.809 140.65C116.948 131.59 121.908 121.957 130.969 119.095C131.064 119 131.255 119 131.35 119C131.732 119.095 131.922 119.381 131.922 119.763V121.098C131.922 121.575 131.732 121.861 131.35 122.052C127.44 123.483 124.292 126.535 122.862 130.54ZM140.602 119.477C140.697 119.095 141.078 118.905 141.46 119.095C146.705 120.812 150.902 124.913 152.619 130.35C155.48 139.41 150.521 149.043 141.46 151.905C141.364 152 141.174 152 141.078 152C140.697 151.905 140.506 151.619 140.506 151.237V149.902C140.506 149.425 140.697 149.139 141.078 148.948C144.989 147.517 148.136 144.465 149.567 140.46C152.333 133.116 148.518 124.818 141.078 122.147C140.792 121.956 140.506 121.575 140.506 121.194V119.858C140.506 119.667 140.506 119.572 140.602 119.477ZM136.5 133.878C140.506 134.355 142.509 135.5 142.509 138.838C142.509 141.413 140.602 143.416 137.74 143.893V146.182C137.645 146.659 137.359 146.945 136.977 146.945H135.547C135.07 146.849 134.784 146.563 134.784 146.182V143.893C131.636 143.416 130.11 141.699 129.729 139.315V139.219C129.729 138.838 130.015 138.552 130.396 138.552H132.018C132.304 138.552 132.59 138.743 132.685 139.124C132.971 140.555 133.83 141.604 136.31 141.604C138.122 141.604 139.457 140.555 139.457 139.029C139.457 137.503 138.599 136.93 135.928 136.454C131.922 135.977 130.015 134.737 130.015 131.59C130.015 129.205 131.827 127.298 134.688 126.916V124.722C134.784 124.245 135.07 123.959 135.451 123.959H136.882C137.359 124.055 137.645 124.341 137.645 124.722V127.011C139.838 127.202 141.555 128.823 141.937 130.922V131.017C141.937 131.399 141.651 131.685 141.269 131.685H139.743C139.457 131.685 139.171 131.494 139.076 131.208C138.599 129.777 137.645 129.205 135.928 129.205C134.021 129.205 133.067 130.063 133.067 131.399C133.067 132.734 133.639 133.497 136.5 133.878Z" fill="white"/>
</g>
</g>
<defs>
<filter id="filter0_d_297_165" x="0" y="0" width="271" height="271" filterUnits="userSpaceOnUse" color-interpolation-filters="sRGB">
<feFlood flood-opacity="0" result="BackgroundImageFix"/>
<feColorMatrix in="SourceAlpha" type="matrix" values="0 0 0 0 0 0 0 0 0 0 0 0 0 0 0 0 0 0 127 0" result="hardAlpha"/>
<feOffset/>
<feGaussianBlur stdDeviation="50"/>
<feComposite in2="hardAlpha" operator="out"/>
<feColorMatrix type="matrix" values="0 0 0 0 0.152941 0 0 0 0 0.458824 0 0 0 0 0.792157 0 0 0 0.75 0"/>
<feBlend mode="normal" in2="BackgroundImageFix" result="effect1_dropShadow_297_165"/>
<feBlend mode="normal" in="SourceGraphic" in2="effect1_dropShadow_297_165" result="shape"/>
</filter>
<filter id="filter1_i_297_165" x="108" y="108" width="55" height="55" filterUnits="userSpaceOnUse" color-interpolation-filters="sRGB">
<feFlood flood-opacity="0" result="BackgroundImageFix"/>
<feBlend mode="normal" in="SourceGraphic" in2="BackgroundImageFix" result="shape"/>
<feColorMatrix in="SourceAlpha" type="matrix" values="0 0 0 0 0 0 0 0 0 0 0 0 0 0 0 0 0 0 127 0" result="hardAlpha"/>
<feOffset/>
<feGaussianBlur stdDeviation="3"/>
<feComposite in2="hardAlpha" operator="arithmetic" k2="-1" k3="1"/>
<feColorMatrix type="matrix" values="0 0 0 0 1 0 0 0 0 1 0 0 0 0 1 0 0 0 0.3 0"/>
<feBlend mode="normal" in2="shape" result="effect1_innerShadow_297_165"/>
</filter>
</defs>
</svg>
